<svg width="48" height="48" viewBox="0 0 48 48" fill="none" xmlns="http://www.w3.org/2000/svg">
<g clip-path="url(#clip0_99_15)">
<g clip-path="url(#clip1_99_15)">
<path d="M0 41.8109C0 45.2294 2.77097 48 6.18915 48H41.8109C45.2294 48 48 45.229 48 41.8109V6.18915C48 2.7706 45.229 0 41.8109 0H6.18915C2.7706 0 0 2.77097 0 6.18915V41.8109Z" fill="#563D7C"/>
<path d="M19.9045 21.2321V14.4346H25.888C26.4578 14.4346 27.0073 14.4821 27.5365 14.5771C28.0656 14.6721 28.5337 14.8416 28.9408 15.0859C29.3478 15.3301 29.6734 15.6693 29.9177 16.1035C30.1619 16.5376 30.284 17.0939 30.284 17.7723C30.284 18.9934 29.9177 19.8753 29.185 20.4181C28.4523 20.9608 27.5161 21.2321 26.3764 21.2321H19.9045ZM13.514 9.46875V38.5312H27.5975C28.9001 38.5312 30.1687 38.3684 31.4033 38.0428C32.638 37.7172 33.737 37.2152 34.7004 36.5368C35.6637 35.8584 36.4303 34.9832 37.0001 33.9114C37.57 32.8395 37.8549 31.5709 37.8549 30.1056C37.8549 28.2875 37.4139 26.7339 36.532 25.445C35.6501 24.156 34.3137 23.2538 32.5227 22.7382C33.8252 22.1141 34.8089 21.3136 35.4737 20.3367C36.1386 19.3598 36.471 18.1387 36.471 16.6733C36.471 15.3165 36.2471 14.1768 35.7994 13.2542C35.3516 12.3316 34.7207 11.5921 33.9066 11.0358C33.0926 10.4796 32.1157 10.0793 30.976 9.83508C29.8362 9.59086 28.5744 9.46875 27.1905 9.46875H13.514ZM19.9045 33.5654V25.5874H26.8649C28.2488 25.5874 29.3614 25.9063 30.2026 26.544C31.0438 27.1817 31.4644 28.2468 31.4644 29.7392C31.4644 30.499 31.3355 31.1232 31.0777 31.6116C30.8199 32.1001 30.4739 32.4867 30.0398 32.7717C29.6056 33.0566 29.1036 33.2601 28.5337 33.3822C27.9639 33.5043 27.3669 33.5654 26.7428 33.5654H19.9045Z" fill="white"/>
</g>
</g>
<defs>
<clipPath id="clip0_99_15">
<rect width="48" height="48" rx="2" fill="white"/>
</clipPath>
<clipPath id="clip1_99_15">
<rect width="48" height="48" fill="white"/>
</clipPath>
</defs>
</svg>
