<svg width="48" height="48" viewBox="0 0 48 48" fill="none" xmlns="http://www.w3.org/2000/svg">
<g clip-path="url(#clip0_99_2)">
<g clip-path="url(#clip1_99_2)">
<path d="M47.2465 10.8399C47.2637 10.9038 47.2727 10.9697 47.2727 11.0358V21.3209C47.2727 21.5897 47.129 21.8378 46.8959 21.9715L38.2634 26.9416V36.7927C38.2634 37.0608 38.1209 37.3082 37.8884 37.4432L19.8689 47.8164C19.8276 47.8399 19.7826 47.8549 19.7377 47.8708C19.7208 47.8764 19.7048 47.8867 19.687 47.8914C19.5611 47.9246 19.4287 47.9246 19.3027 47.8914C19.2821 47.8858 19.2633 47.8746 19.2436 47.8671C19.2024 47.8521 19.1593 47.8389 19.1199 47.8164L1.1041 37.4432C0.87115 37.3094 0.727264 37.0613 0.727264 36.7927V5.93734C0.727264 5.86985 0.736638 5.80423 0.753511 5.74049C0.759136 5.71893 0.772259 5.69925 0.779759 5.67769C0.79382 5.63832 0.806943 5.59801 0.827566 5.56145C0.841627 5.53708 0.862249 5.51739 0.879123 5.49489C0.900683 5.4649 0.920368 5.43396 0.945678 5.40772C0.967238 5.38616 0.99536 5.37022 1.01973 5.35147C1.04692 5.32897 1.07129 5.3046 1.10222 5.28679H1.10316L10.1115 0.100181C10.3437 -0.0333936 10.6293 -0.0333936 10.8615 0.100181L19.8698 5.28679H19.8717C19.9017 5.30554 19.927 5.32897 19.9542 5.35053C19.9786 5.36928 20.0057 5.38616 20.0273 5.40678C20.0536 5.43396 20.0723 5.4649 20.0948 5.49489C20.1107 5.51739 20.1323 5.53708 20.1454 5.56145C20.167 5.59894 20.1792 5.63832 20.1942 5.67769C20.2017 5.69925 20.2148 5.71893 20.2204 5.74143C20.2377 5.80531 20.2465 5.87117 20.2467 5.93734V25.2093L27.7533 20.8869V11.0349C27.7533 10.9693 27.7627 10.9027 27.7796 10.8399C27.7861 10.8174 27.7983 10.7977 27.8058 10.7762C27.8208 10.7368 27.8339 10.6965 27.8546 10.6599C27.8686 10.6356 27.8892 10.6159 27.9052 10.5934C27.9277 10.5634 27.9464 10.5325 27.9727 10.5062C27.9942 10.4847 28.0214 10.4687 28.0458 10.45C28.0739 10.4275 28.0983 10.4031 28.1283 10.3853H28.1292L37.1385 5.19868C37.3706 5.06491 37.6564 5.06491 37.8884 5.19868L46.8968 10.3853C46.9287 10.404 46.9531 10.4275 46.9812 10.449C47.0046 10.4678 47.0318 10.4847 47.0534 10.5053C47.0796 10.5325 47.0984 10.5634 47.1209 10.5934C47.1377 10.6159 47.1584 10.6356 47.1715 10.6599C47.193 10.6965 47.2052 10.7368 47.2202 10.7762C47.2287 10.7977 47.2408 10.8174 47.2465 10.8399ZM45.771 20.8869V12.3341L42.6185 14.1489L38.2634 16.6565V25.2093L45.7719 20.8869H45.771ZM36.7626 36.3587V27.8002L32.4787 30.2468L20.2457 37.2286V45.8676L36.7626 36.3587ZM2.22897 7.23564V36.3587L18.744 45.8667V37.2295L10.1162 32.3466L10.1134 32.3447L10.1097 32.3429C10.0806 32.326 10.0562 32.3016 10.029 32.281C10.0056 32.2622 9.97842 32.2472 9.9578 32.2266L9.95593 32.2238C9.93155 32.2004 9.91468 32.1713 9.89406 32.1451C9.87531 32.1197 9.85281 32.0982 9.83781 32.0719L9.83688 32.0691C9.82 32.041 9.80969 32.0073 9.79751 31.9754C9.78532 31.9473 9.76938 31.921 9.76189 31.891V31.8901C9.75251 31.8545 9.75064 31.817 9.74689 31.7804C9.74314 31.7523 9.73564 31.7242 9.73564 31.696V31.6942V11.558L5.38143 9.0495L2.22897 7.23658V7.23564ZM10.4874 1.61689L2.9817 5.93734L10.4856 10.2578L17.9903 5.93641L10.4856 1.61689H10.4874ZM14.3907 28.5801L18.7449 26.0735V7.23564L15.5925 9.05044L11.2373 11.558V30.3959L14.3907 28.5801ZM37.5135 6.71538L30.0087 11.0358L37.5135 15.3563L45.0173 11.0349L37.5135 6.71538ZM36.7626 16.6565L32.4075 14.1489L29.255 12.3341V20.8869L33.6092 23.3935L36.7626 25.2093V16.6565ZM19.4939 35.9303L30.5018 29.646L36.0043 26.5057L28.5051 22.188L19.8708 27.1591L12.0013 31.6895L19.4939 35.9303Z" fill="#FF2D20"/>
</g>
</g>
<defs>
<clipPath id="clip0_99_2">
<rect width="48" height="48" rx="2" fill="white"/>
</clipPath>
<clipPath id="clip1_99_2">
<rect width="48" height="48" fill="white"/>
</clipPath>
</defs>
</svg>
