<svg width="48" height="48" viewBox="0 0 48 48" fill="none" xmlns="http://www.w3.org/2000/svg">
<g clip-path="url(#clip0_99_298)">
<path d="M45.0174 29.5117C39.2083 30.6914 38.8078 28.7539 38.8078 28.7539C44.942 19.7891 47.5036 8.40627 45.291 5.62111C39.2559 -1.97655 28.8075 1.6172 28.633 1.71095L28.5735 1.71877C27.4276 1.48439 26.1428 1.34377 24.6995 1.32033C22.0705 1.27736 20.076 2.00002 18.5652 3.12892C18.5652 3.12892 -0.0753517 -4.43748 0.793036 12.6445C0.979402 16.2774 6.0787 40.1367 12.1653 32.9297C14.3898 30.293 16.539 28.0664 16.539 28.0664C17.6057 28.7656 18.8864 29.1211 20.2227 28.9922L20.3258 28.9063C20.2941 29.2344 20.31 29.5547 20.3655 29.9336C18.7992 31.6602 19.2592 31.961 16.1227 32.5977C12.9505 33.2422 14.8141 34.3867 16.0315 34.6875C17.5065 35.0508 20.9166 35.5664 23.2244 32.3867L23.1332 32.75C23.7478 33.2344 24.18 35.9024 24.1087 38.3203C24.0373 40.7383 23.9897 42.3985 24.4735 43.6953C24.9572 44.9922 25.441 47.9102 29.5609 47.0391C33.0027 46.3125 34.7871 44.4297 35.0369 41.2891C35.2113 39.0547 35.6118 39.3867 35.6356 37.3906L35.9568 36.4453C36.3256 33.418 36.0163 32.4414 38.1377 32.8945L38.6532 32.9375C40.2155 33.0078 42.2576 32.6914 43.4551 32.1406C46.0285 30.9649 47.5631 28.9922 45.0174 29.5117Z" fill="#336791"/>
<path d="M22.7565 31.2266C22.7684 30.836 23.0975 30.5274 23.4941 30.5391C23.8906 30.5508 24.2038 30.875 24.1919 31.2656C24.1087 34.168 24.1245 37.0781 24.2316 39.4063C24.3307 41.5039 24.5012 43.082 24.7391 43.668C24.9929 44.2891 25.3855 45.207 26.1389 45.8281C26.8724 46.4375 28.0025 46.8086 29.8028 46.4297C31.377 46.0977 32.4357 45.625 33.1415 44.9024C33.8394 44.1875 34.2359 43.1758 34.4817 41.7617C34.6641 40.7305 34.9139 38.9297 35.14 37.1367C35.4255 34.8945 35.6872 32.6289 35.7427 31.8985C35.7704 31.5078 36.1154 31.2149 36.5119 31.2461C36.9085 31.2735 37.2059 31.6133 37.1741 32.0039C37.1186 32.7149 36.8569 35.0078 36.5595 37.3164C36.3216 39.168 36.0678 41.0039 35.8934 42C35.596 43.6914 35.0924 44.9375 34.1685 45.8828C33.2485 46.8242 31.9598 47.418 30.0922 47.8125C27.7725 48.3008 26.242 47.7656 25.207 46.9063C24.188 46.0625 23.7042 44.9453 23.3989 44.1914C23.0975 43.4531 22.8953 41.711 22.7882 39.4649C22.6851 37.1172 22.6733 34.168 22.7565 31.2266Z" fill="white"/>
<path d="M18.7992 2.34766C19.168 2.49219 19.3464 2.90235 19.1997 3.26563C19.053 3.62891 18.6366 3.80469 18.2679 3.66016C18.2203 3.64063 0.654274 -3.42968 1.46715 12.5391C1.56628 14.5117 3.15238 22.582 5.56324 28.2109C6.32457 29.9844 7.16123 31.5 8.04945 32.4688C8.79095 33.2813 9.54831 33.6719 10.2779 33.4141C10.6824 33.2695 11.1146 32.9453 11.5706 32.4063C13.803 29.7617 15.8332 27.6719 15.8411 27.668C16.1147 27.3867 16.5668 27.375 16.8523 27.6445C17.1378 27.9141 17.1497 28.3594 16.8761 28.6406C16.8721 28.6445 14.8895 30.6797 12.6729 33.3086C12.0424 34.0586 11.4001 34.5234 10.7537 34.75C9.38177 35.2305 8.12082 34.668 6.97883 33.418C5.97959 32.3281 5.05966 30.6758 4.24282 28.7578C1.76454 22.9805 0.134828 14.6523 0.0317313 12.6055C-0.89217 -5.58203 18.7437 2.32422 18.7992 2.34766Z" fill="white"/>
<path d="M28.9859 2.23828L27.9193 1.08985C28.0065 1.0586 28.0937 1.03125 28.181 1.00781C28.4149 0.933596 28.6687 0.859377 28.9423 0.781252C29.3428 0.664065 29.9296 0.511721 30.6473 0.375002C34.2279 -0.308591 41.2147 -0.679685 45.8183 5.11719C47.1189 6.75391 47.0119 10.8047 45.6677 15.6016C44.4781 19.8477 42.3329 24.7422 39.3669 29.0781C39.1448 29.4023 38.6968 29.4883 38.3677 29.2695C38.0385 29.0508 37.9513 28.6094 38.1734 28.2852C41.0521 24.0781 43.1299 19.332 44.2838 15.2227C45.513 10.8398 45.7073 7.26563 44.6883 5.98438C40.5565 0.785158 34.1843 1.13672 30.913 1.76563C30.2429 1.89453 29.7076 2.03125 29.3428 2.13672L28.9859 2.23828Z" fill="white"/>
<path d="M39.4502 28.4649C39.4581 28.4844 39.4621 28.5039 39.466 28.5235C39.466 28.5274 39.7119 29.7891 44.831 28.75C45.5566 28.6016 46.0721 28.6328 46.4052 28.793C46.8374 28.9961 47.0238 29.336 46.996 29.7735C46.9802 30.0391 46.8533 30.3242 46.6431 30.6094C46.1594 31.2617 45.0531 32.1055 43.7088 32.7188C42.7017 33.1797 41.1671 33.4883 39.7595 33.5664C38.9307 33.6133 38.1377 33.5821 37.5072 33.4571C36.7142 33.3008 36.1114 32.9766 35.8616 32.4492C35.7942 32.3086 35.7546 32.1563 35.7466 31.9922C35.588 29.25 36.9441 28.7696 37.8918 28.5039C37.7927 28.3633 37.6579 28.1953 37.5072 28.0117C37.0274 27.4219 36.4128 26.6641 35.9251 25.5039C35.8497 25.3281 35.6317 24.9375 35.3382 24.4219C34.0971 22.2305 31.6545 17.9102 32.1343 14.961C32.4753 12.8555 34.105 11.457 38.1773 11.875L38.1377 11.7578C37.9434 11.2149 37.6341 10.5039 37.186 9.70705C35.4096 6.51955 31.5356 2.07424 24.6559 1.96486C14.1599 1.79689 14.5049 14.836 14.5049 14.8711C14.5128 15.2617 14.1956 15.582 13.799 15.5899C13.4025 15.5977 13.0774 15.2852 13.0694 14.8946C13.0694 14.8516 12.6808 0.359393 24.6757 0.550799C32.2493 0.671893 36.5 5.53908 38.443 9.02346C38.9268 9.89064 39.2717 10.6797 39.4898 11.293C39.7357 11.9805 39.8269 12.5195 39.7872 12.7578C39.7317 13.1094 39.5334 13.3281 39.1924 13.3946L38.9347 13.3985C35.1994 12.8086 33.7878 13.711 33.5499 15.1797C33.1494 17.6524 35.4334 21.6836 36.5912 23.7344C36.9045 24.2891 37.1424 24.711 37.2495 24.9688C37.6619 25.9492 38.2011 26.6133 38.6214 27.1367C39.014 27.6094 39.3233 27.9922 39.4502 28.4649ZM45.1205 30.1328C41.3257 30.9063 39.5572 30.3399 38.7444 29.7305C38.6333 29.7656 38.5144 29.7969 38.3875 29.8321C37.8799 29.9727 37.0909 30.1914 37.1741 31.8711C37.2336 31.9336 37.4557 32 37.7808 32.0664C38.3003 32.168 38.9664 32.1914 39.6762 32.1524C40.9173 32.0821 42.2536 31.8203 43.1061 31.4297C43.9824 31.0274 44.716 30.543 45.1681 30.1211L45.1205 30.1328Z" fill="white"/>
<path d="M20.8572 30.3398C20.5637 30.6641 20.3219 30.9648 20.1157 31.2227C19.2354 32.3242 18.9618 32.668 16.2297 33.2227C15.738 33.3242 15.405 33.4219 15.1988 33.5195C15.4526 33.6992 15.8332 33.8477 16.1663 33.9297C16.8404 34.0977 17.9586 34.2969 19.1561 34.0977C20.3219 33.9023 21.5788 33.3125 22.5979 31.9063C22.6296 31.8594 22.6574 31.8086 22.6812 31.7578C22.7843 31.5117 22.7605 31.2031 22.6574 30.9102C22.5464 30.5977 22.3441 30.3242 22.1102 30.1562C22.0547 30.1172 21.9992 30.0859 21.9397 30.0625L21.904 30.0469C21.7573 29.9883 21.5947 29.9258 21.4559 29.9375C21.3052 29.9531 21.1149 30.0547 20.8572 30.3398ZM18.9856 30.3438C19.1799 30.1016 19.4059 29.8203 19.7469 29.4414C19.7747 29.4063 19.8064 29.3711 19.8381 29.3398C20.3655 28.7773 20.8691 28.5664 21.333 28.5273C21.793 28.4883 22.1498 28.6172 22.4512 28.7422C22.4631 28.7461 22.475 28.75 22.4909 28.7578C22.6455 28.8203 22.7962 28.9063 22.9429 29.0078C23.4148 29.3398 23.8033 29.8672 24.0135 30.4414C24.2276 31.0391 24.2633 31.707 24.0095 32.3008C23.9461 32.4492 23.8668 32.5898 23.7677 32.7266C22.4829 34.5 20.881 35.2422 19.398 35.4922C17.9427 35.7383 16.6183 35.5 15.8174 35.3047C15.2345 35.1602 14.5128 34.8398 14.0885 34.4492C13.8387 34.2188 13.6682 33.9453 13.6206 33.6406C13.5651 33.2773 13.6761 32.9258 14.0132 32.6133C14.3383 32.3125 14.941 32.0391 15.9363 31.8359C18.1529 31.3867 18.3511 31.1406 18.9856 30.3438Z" fill="white"/>
<path d="M20.9325 29.7266C20.992 30.1133 20.7223 30.4766 20.3298 30.5313C19.9372 30.586 19.5685 30.3242 19.5129 29.9375C19.4971 29.8438 19.4892 29.75 19.4812 29.6524C19.2433 29.6446 19.0094 29.6289 18.7794 29.5938C17.2409 29.3828 15.8491 28.6172 14.8022 27.4844C13.7673 26.3672 13.0694 24.8906 12.9069 23.2422C12.8474 22.6563 12.8593 22.0469 12.9465 21.4336C13.2994 18.957 13.1646 16.7422 13.0972 15.5938C13.0774 15.2813 13.0655 15.0469 13.0655 14.8672C13.0694 14.4024 14.255 13.3789 15.8173 12.7461C16.5232 12.461 17.3122 12.2227 18.0934 12.1055C18.9182 11.9844 19.7509 11.9961 20.5003 12.2266C21.674 12.5899 22.6058 13.4453 22.9627 15.082C24.2514 20.9453 23.0975 23.4649 22.1974 25.4375C22.0428 25.7774 21.8961 26.0977 21.785 26.3867C21.7811 26.4063 21.7731 26.4219 21.7652 26.4414C21.3885 27.4414 21.9397 25.9766 21.6542 26.7227C21.2061 27.9258 20.8135 28.957 20.9325 29.7266ZM19.6359 28.2422C19.7905 27.6133 20.0443 26.9492 20.3139 26.2344C20.528 25.6719 19.969 27.1446 20.417 25.9531C20.425 25.9336 20.4329 25.9141 20.4408 25.8946C20.5796 25.5313 20.7303 25.2071 20.8849 24.8633C21.7018 23.0781 22.7407 20.7969 21.555 15.3906C21.3251 14.3399 20.766 13.8008 20.0681 13.586C19.5447 13.4258 18.9301 13.4219 18.2996 13.5156C17.6255 13.6172 16.9514 13.8203 16.3487 14.0625C15.29 14.4883 14.489 14.8477 14.489 14.8789C14.489 14.9805 14.5009 15.211 14.5207 15.5195C14.5921 16.711 14.7309 19.0195 14.3621 21.6367C14.2907 22.1485 14.2788 22.6445 14.3264 23.1211C14.4573 24.4492 15.0203 25.6406 15.857 26.543C16.6818 27.4336 17.7722 28.0391 18.9697 28.2031C19.1918 28.2266 19.4138 28.2422 19.6359 28.2422Z" fill="white"/>
<path d="M18.4661 14.7734C18.4344 15.0039 18.8983 15.625 19.5011 15.707C20.1038 15.7891 20.6232 15.3047 20.6549 15.0742C20.6867 14.8438 20.2227 14.5859 19.62 14.5039C19.0173 14.4219 18.4979 14.543 18.4661 14.7734Z" fill="white"/>
<path d="M18.704 14.8047C18.6961 14.8555 18.7794 14.9883 18.9182 15.1328C19.0728 15.293 19.2909 15.4375 19.5328 15.4727H19.5367C19.7746 15.5039 19.9967 15.4258 20.1632 15.3125C20.3179 15.211 20.4131 15.1016 20.4249 15.0391C20.4249 15.0274 20.3655 14.9922 20.2663 14.9375C20.1038 14.8477 19.8658 14.7735 19.5922 14.7344H19.5843C19.3147 14.6992 19.0649 14.707 18.8864 14.75C18.7754 14.7774 18.704 14.7969 18.704 14.8047ZM18.5732 15.457C18.3392 15.2149 18.2084 14.9258 18.2322 14.7461V14.7383C18.2639 14.5156 18.4661 14.3633 18.7754 14.2891C19.0094 14.2344 19.3186 14.2227 19.6478 14.2656C19.6517 14.2656 19.6557 14.2656 19.6597 14.2656C19.9927 14.3125 20.2901 14.4063 20.5003 14.5235C20.7779 14.6758 20.9325 14.8828 20.9008 15.1016C20.877 15.2735 20.6985 15.5235 20.4329 15.6992C20.1831 15.8672 19.8421 15.9883 19.4733 15.9375H19.4693C19.1045 15.8906 18.7913 15.6836 18.5732 15.457Z" fill="white"/>
<path d="M36.8807 14.3008C36.9124 14.5313 36.4485 15.1524 35.8458 15.2344C35.2391 15.3164 34.7236 14.832 34.6919 14.6016C34.6602 14.3711 35.1241 14.1133 35.7308 14.0313C36.3295 13.9492 36.845 14.0703 36.8807 14.3008Z" fill="white"/>
<path d="M36.9957 14.2852C37.0155 14.4336 36.8966 14.6875 36.6864 14.9063C36.4842 15.1172 36.1907 15.3086 35.8577 15.3516H35.8537C35.5206 15.3946 35.2113 15.2852 34.9813 15.1328C34.7434 14.9766 34.5888 14.7617 34.565 14.6172C34.5412 14.4492 34.6721 14.2852 34.906 14.1563C35.1043 14.0469 35.3858 13.9571 35.703 13.9141C36.0202 13.8711 36.3176 13.8828 36.5397 13.9336C36.8014 13.9922 36.9719 14.1133 36.9957 14.2852ZM36.5119 14.7422C36.6745 14.5742 36.7697 14.4024 36.7578 14.3164C36.7498 14.2539 36.6467 14.1992 36.4881 14.1602C36.2938 14.1133 36.0282 14.1055 35.7387 14.1446C35.4532 14.1836 35.1994 14.2656 35.025 14.3594C34.8822 14.4375 34.7989 14.5196 34.8069 14.5821C34.8188 14.668 34.9377 14.8125 35.1201 14.9336C35.3065 15.0586 35.5603 15.1485 35.8299 15.1133H35.8339C36.0995 15.0781 36.3414 14.918 36.5119 14.7422Z" fill="white"/>
<path d="M38.3241 12.7305C38.3042 12.3399 38.6096 12.0078 39.0061 11.9883C39.4026 11.9688 39.7397 12.2695 39.7595 12.6602C39.819 13.7539 39.6841 14.6211 39.5414 15.5313C39.4343 16.211 39.3233 16.9219 39.2995 17.7149C39.2757 18.4688 39.3749 19.3047 39.4819 20.1641C39.7595 22.4258 40.0529 24.8477 38.3479 27.3516C38.1258 27.6758 37.6817 27.7617 37.3526 27.5469C37.0235 27.3281 36.9362 26.8906 37.1543 26.5664C38.558 24.5 38.2963 22.3477 38.0505 20.332C37.9394 19.4336 37.8324 18.5586 37.8641 17.6758C37.8919 16.7617 38.0068 16.0313 38.1179 15.3242C38.2527 14.4727 38.3756 13.668 38.3241 12.7305Z" fill="white"/>
</g>
<defs>
<clipPath id="clip0_99_298">
<rect width="47" height="48" fill="white"/>
</clipPath>
</defs>
</svg>
