<svg width="48" height="48" viewBox="0 0 48 48" fill="none" xmlns="http://www.w3.org/2000/svg">
<g clip-path="url(#clip0_99_8)">
<path d="M11.9313 20.7235C13.5222 14.3549 17.4993 11.1706 23.8627 11.1706C33.4077 11.1706 34.6009 18.3353 39.3734 19.5294C42.5551 20.3255 45.339 19.1314 47.7253 15.9471C46.1345 22.3157 42.1574 25.5 35.794 25.5C26.2489 25.5 25.0558 18.3353 20.2833 17.1412C17.1016 16.3451 14.3176 17.5392 11.9313 20.7235ZM0 35.0529C1.59084 28.6843 5.56795 25.5 11.9313 25.5C21.4764 25.5 22.6695 32.6647 27.4421 33.8588C30.6237 34.6549 33.4077 33.4608 35.794 30.2765C34.2031 36.6451 30.226 39.8294 23.8627 39.8294C14.3176 39.8294 13.1245 32.6647 8.35193 31.4706C5.17024 30.6745 2.38627 31.8686 0 35.0529Z" fill="#44A8B3"/>
</g>
<defs>
<clipPath id="clip0_99_8">
<rect width="48" height="29" fill="white" transform="translate(0 11)"/>
</clipPath>
</defs>
</svg>
